{
	"asset":{
		"copyright":"WILDDESIGN",
		"generator":"Khronos glTF Blender I/O v3.6.27",
		"version":"2.0"
	},
	"extensionsUsed":[
		"KHR_materials_specular",
		"KHR_materials_ior",
		"KHR_materials_emissive_strength"
	],
	"scene":0,
	"scenes":[
		{
			"name":"Scene",
			"nodes":[
				0,
				1,
				2,
				3
			]
		}
	],
	"nodes":[
		{
			"mesh":0,
			"name":"Mannequin_ Ceasar.001",
			"rotation":[
				-0.5169671773910522,
				-0.4801385700702667,
				-0.461647629737854,
				0.5376740097999573
			],
			"scale":[
				0.23066703975200653,
				0.23066703975200653,
				0.2306670993566513
			],
			"translation":[
				-0.19707730412483215,
				0.710811197757721,
				-1.171707272529602
			]
		},
		{
			"mesh":1,
			"name":"Scanner Ribng",
			"translation":[
				0,
				0.8560132384300232,
				-0.7717065215110779
			]
		},
		{
			"mesh":2,
			"name":"Scanner_base",
			"translation":[
				0,
				0.32712358236312866,
				-0.3194875717163086
			]
		},
		{
			"mesh":3,
			"name":"Mannequin_ Ceasar.003",
			"rotation":[
				-0.7196763753890991,
				0,
				0,
				0.6943097114562988
			],
			"translation":[
				0.003504440188407898,
				0.8226727843284607,
				0.9306519031524658
			]
		}
	],
	"materials":[
		{
			"doubleSided":true,
			"extensions":{
				"KHR_materials_specular":{
					"specularColorFactor":[
						2.371357614441398,
						2.371357614441398,
						2.371357614441398
					]
				},
				"KHR_materials_ior":{
					"ior":1.4500000476837158
				}
			},
			"name":"M_Body_M.001",
			"pbrMetallicRoughness":{
				"baseColorFactor":[
					0.5,
					0.5,
					0.5,
					0.6493902206420898
				],
				"metallicFactor":0.5,
				"roughnessFactor":0.7487671971321106
			}
		},
		{
			"doubleSided":true,
			"name":"Plastic Black ",
			"pbrMetallicRoughness":{
				"baseColorFactor":[
					0,
					0,
					0,
					1
				],
				"metallicFactor":0,
				"roughnessFactor":0.5
			}
		},
		{
			"doubleSided":true,
			"name":"Plastic White ",
			"pbrMetallicRoughness":{
				"baseColorFactor":[
					0.8140242099761963,
					0.8140242099761963,
					0.8140242099761963,
					1
				],
				"metallicFactor":0,
				"roughnessFactor":0.22560974955558777
			}
		},
		{
			"doubleSided":true,
			"emissiveFactor":[
				1,
				1,
				1
			],
			"extensions":{
				"KHR_materials_emissive_strength":{
					"emissiveStrength":5
				}
			},
			"name":"Emission.001",
			"pbrMetallicRoughness":{
				"baseColorFactor":[
					0.800000011920929,
					0.800000011920929,
					0.800000011920929,
					1
				],
				"metallicFactor":0,
				"roughnessFactor":0.5
			}
		},
		{
			"doubleSided":true,
			"name":"Plastic Grey",
			"pbrMetallicRoughness":{
				"baseColorFactor":[
					0.4671838879585266,
					0.4671838879585266,
					0.4671838879585266,
					1
				],
				"metallicFactor":0,
				"roughnessFactor":0.5
			}
		},
		{
			"doubleSided":true,
			"name":"leather",
			"pbrMetallicRoughness":{
				"baseColorFactor":[
					0,
					0,
					0,
					1
				],
				"metallicFactor":0,
				"roughnessFactor":0.6554877758026123
			}
		},
		{
			"doubleSided":true,
			"name":"Glas",
			"pbrMetallicRoughness":{
				"baseColorFactor":[
					0,
					0,
					0,
					1
				],
				"metallicFactor":0,
				"roughnessFactor":0.02097901701927185
			}
		},
		{
			"doubleSided":true,
			"extensions":{
				"KHR_materials_specular":{
					"specularColorFactor":[
						2.371357614441398,
						2.371357614441398,
						2.371357614441398
					]
				},
				"KHR_materials_ior":{
					"ior":1.4500000476837158
				}
			},
			"name":"M_Body_M.002",
			"pbrMetallicRoughness":{
				"baseColorFactor":[
					0.5,
					0.5,
					0.5,
					1
				],
				"metallicFactor":0.5,
				"roughnessFactor":0.7487671971321106
			}
		}
	],
	"meshes":[
		{
			"name":"Mannequin_CeasarStudie.005",
			"primitives":[
				{
					"attributes":{
						"POSITION":0,
						"NORMAL":1,
						"TEXCOORD_0":2
					},
					"indices":3,
					"material":0
				}
			]
		},
		{
			"name":"Cylinder.002",
			"primitives":[
				{
					"attributes":{
						"POSITION":4,
						"NORMAL":5,
						"TEXCOORD_0":6
					},
					"indices":7,
					"material":1
				},
				{
					"attributes":{
						"POSITION":8,
						"NORMAL":9,
						"TEXCOORD_0":10
					},
					"indices":11,
					"material":2
				},
				{
					"attributes":{
						"POSITION":12,
						"NORMAL":13,
						"TEXCOORD_0":14
					},
					"indices":15,
					"material":3
				}
			]
		},
		{
			"name":"Cube.022",
			"primitives":[
				{
					"attributes":{
						"COLOR_0":16,
						"POSITION":17,
						"NORMAL":18,
						"TEXCOORD_0":19
					},
					"indices":20,
					"material":1
				},
				{
					"attributes":{
						"COLOR_0":21,
						"POSITION":22,
						"NORMAL":23,
						"TEXCOORD_0":24
					},
					"indices":25,
					"material":2
				},
				{
					"attributes":{
						"COLOR_0":26,
						"POSITION":27,
						"NORMAL":28,
						"TEXCOORD_0":29
					},
					"indices":30,
					"material":4
				},
				{
					"attributes":{
						"COLOR_0":31,
						"POSITION":32,
						"NORMAL":33,
						"TEXCOORD_0":34
					},
					"indices":35,
					"material":5
				},
				{
					"attributes":{
						"COLOR_0":36,
						"POSITION":37,
						"NORMAL":38,
						"TEXCOORD_0":39
					},
					"indices":40,
					"material":6
				}
			]
		},
		{
			"name":"Mannequin_CeasarStudie.006",
			"primitives":[
				{
					"attributes":{
						"POSITION":41,
						"NORMAL":42,
						"TEXCOORD_0":43
					},
					"indices":3,
					"material":7
				}
			]
		}
	],
	"accessors":[
		{
			"bufferView":0,
			"componentType":5126,
			"count":4649,
			"max":[
				0.25026842951774597,
				1.7267405986785889,
				0.15754613280296326
			],
			"min":[
				-0.23668864369392395,
				-0.00880802609026432,
				-0.13318470120429993
			],
			"type":"VEC3"
		},
		{
			"bufferView":1,
			"componentType":5126,
			"count":4649,
			"type":"VEC3"
		},
		{
			"bufferView":2,
			"componentType":5126,
			"count":4649,
			"type":"VEC2"
		},
		{
			"bufferView":3,
			"componentType":5123,
			"count":24330,
			"type":"SCALAR"
		},
		{
			"bufferView":4,
			"componentType":5126,
			"count":344,
			"max":[
				0.5320040583610535,
				0.5320040583610535,
				0.1864638775587082
			],
			"min":[
				-0.5320040583610535,
				-0.783695638179779,
				-0.1864638775587082
			],
			"type":"VEC3"
		},
		{
			"bufferView":5,
			"componentType":5126,
			"count":344,
			"type":"VEC3"
		},
		{
			"bufferView":6,
			"componentType":5126,
			"count":344,
			"type":"VEC2"
		},
		{
			"bufferView":7,
			"componentType":5123,
			"count":612,
			"type":"SCALAR"
		},
		{
			"bufferView":8,
			"componentType":5126,
			"count":768,
			"max":[
				0.6089280843734741,
				0.6089280843734741,
				0.1864638775587082
			],
			"min":[
				-0.6089280843734741,
				-0.6089280843734741,
				-0.1864638775587082
			],
			"type":"VEC3"
		},
		{
			"bufferView":9,
			"componentType":5126,
			"count":768,
			"type":"VEC3"
		},
		{
			"bufferView":10,
			"componentType":5126,
			"count":768,
			"type":"VEC2"
		},
		{
			"bufferView":11,
			"componentType":5123,
			"count":1344,
			"type":"SCALAR"
		},
		{
			"bufferView":12,
			"componentType":5126,
			"count":256,
			"max":[
				0.5921323299407959,
				0.5921323299407959,
				0.12140922993421555
			],
			"min":[
				-0.5921323299407959,
				-0.5921323299407959,
				-0.12140922993421555
			],
			"type":"VEC3"
		},
		{
			"bufferView":13,
			"componentType":5126,
			"count":256,
			"type":"VEC3"
		},
		{
			"bufferView":14,
			"componentType":5126,
			"count":256,
			"type":"VEC2"
		},
		{
			"bufferView":15,
			"componentType":5123,
			"count":384,
			"type":"SCALAR"
		},
		{
			"bufferView":16,
			"componentType":5123,
			"count":370,
			"normalized":true,
			"type":"VEC4"
		},
		{
			"bufferView":17,
			"componentType":5126,
			"count":370,
			"max":[
				0.2517969012260437,
				0.3374647796154022,
				1.35397207736969
			],
			"min":[
				-0.25179654359817505,
				-0.25747251510620117,
				-1.0151549577713013
			],
			"type":"VEC3"
		},
		{
			"bufferView":18,
			"componentType":5126,
			"count":370,
			"type":"VEC3"
		},
		{
			"bufferView":19,
			"componentType":5126,
			"count":370,
			"type":"VEC2"
		},
		{
			"bufferView":20,
			"componentType":5123,
			"count":1074,
			"type":"SCALAR"
		},
		{
			"bufferView":21,
			"componentType":5123,
			"count":900,
			"normalized":true,
			"type":"VEC4"
		},
		{
			"bufferView":22,
			"componentType":5126,
			"count":900,
			"max":[
				0.27818119525909424,
				0.3522692322731018,
				1.3778488636016846
			],
			"min":[
				-0.2781813442707062,
				-0.30303871631622314,
				-1.3179292678833008
			],
			"type":"VEC3"
		},
		{
			"bufferView":23,
			"componentType":5126,
			"count":900,
			"type":"VEC3"
		},
		{
			"bufferView":24,
			"componentType":5126,
			"count":900,
			"type":"VEC2"
		},
		{
			"bufferView":25,
			"componentType":5123,
			"count":2406,
			"type":"SCALAR"
		},
		{
			"bufferView":26,
			"componentType":5123,
			"count":32,
			"normalized":true,
			"type":"VEC4"
		},
		{
			"bufferView":27,
			"componentType":5126,
			"count":32,
			"max":[
				0.2740156650543213,
				0.33938342332839966,
				1.3649630546569824
			],
			"min":[
				-0.2740158140659332,
				0.22309325635433197,
				-1.2240078449249268
			],
			"type":"VEC3"
		},
		{
			"bufferView":28,
			"componentType":5126,
			"count":32,
			"type":"VEC3"
		},
		{
			"bufferView":29,
			"componentType":5126,
			"count":32,
			"type":"VEC2"
		},
		{
			"bufferView":30,
			"componentType":5123,
			"count":108,
			"type":"SCALAR"
		},
		{
			"bufferView":31,
			"componentType":5123,
			"count":109,
			"normalized":true,
			"type":"VEC4"
		},
		{
			"bufferView":32,
			"componentType":5126,
			"count":109,
			"max":[
				0.2526024580001831,
				0.38612261414527893,
				1.351325273513794
			],
			"min":[
				-0.25260257720947266,
				0.3505842983722687,
				-0.585407555103302
			],
			"type":"VEC3"
		},
		{
			"bufferView":33,
			"componentType":5126,
			"count":109,
			"type":"VEC3"
		},
		{
			"bufferView":34,
			"componentType":5126,
			"count":109,
			"type":"VEC2"
		},
		{
			"bufferView":35,
			"componentType":5123,
			"count":192,
			"type":"SCALAR"
		},
		{
			"bufferView":36,
			"componentType":5123,
			"count":4,
			"normalized":true,
			"type":"VEC4"
		},
		{
			"bufferView":37,
			"componentType":5126,
			"count":4,
			"max":[
				0.2541136145591736,
				0.34094491600990295,
				-1.052857518196106
			],
			"min":[
				-0.25411373376846313,
				0.26819512248039246,
				-1.2341870069503784
			],
			"type":"VEC3"
		},
		{
			"bufferView":38,
			"componentType":5126,
			"count":4,
			"type":"VEC3"
		},
		{
			"bufferView":39,
			"componentType":5126,
			"count":4,
			"type":"VEC2"
		},
		{
			"bufferView":40,
			"componentType":5123,
			"count":6,
			"type":"SCALAR"
		},
		{
			"bufferView":41,
			"componentType":5126,
			"count":4649,
			"max":[
				0.25026842951774597,
				1.7267405986785889,
				0.15754613280296326
			],
			"min":[
				-0.23668864369392395,
				-0.00880802609026432,
				-0.13318470120429993
			],
			"type":"VEC3"
		},
		{
			"bufferView":42,
			"componentType":5126,
			"count":4649,
			"type":"VEC3"
		},
		{
			"bufferView":43,
			"componentType":5126,
			"count":4649,
			"type":"VEC2"
		}
	],
	"bufferViews":[
		{
			"buffer":0,
			"byteLength":55788,
			"byteOffset":0,
			"target":34962
		},
		{
			"buffer":0,
			"byteLength":55788,
			"byteOffset":55788,
			"target":34962
		},
		{
			"buffer":0,
			"byteLength":37192,
			"byteOffset":111576,
			"target":34962
		},
		{
			"buffer":0,
			"byteLength":48660,
			"byteOffset":148768,
			"target":34963
		},
		{
			"buffer":0,
			"byteLength":4128,
			"byteOffset":197428,
			"target":34962
		},
		{
			"buffer":0,
			"byteLength":4128,
			"byteOffset":201556,
			"target":34962
		},
		{
			"buffer":0,
			"byteLength":2752,
			"byteOffset":205684,
			"target":34962
		},
		{
			"buffer":0,
			"byteLength":1224,
			"byteOffset":208436,
			"target":34963
		},
		{
			"buffer":0,
			"byteLength":9216,
			"byteOffset":209660,
			"target":34962
		},
		{
			"buffer":0,
			"byteLength":9216,
			"byteOffset":218876,
			"target":34962
		},
		{
			"buffer":0,
			"byteLength":6144,
			"byteOffset":228092,
			"target":34962
		},
		{
			"buffer":0,
			"byteLength":2688,
			"byteOffset":234236,
			"target":34963
		},
		{
			"buffer":0,
			"byteLength":3072,
			"byteOffset":236924,
			"target":34962
		},
		{
			"buffer":0,
			"byteLength":3072,
			"byteOffset":239996,
			"target":34962
		},
		{
			"buffer":0,
			"byteLength":2048,
			"byteOffset":243068,
			"target":34962
		},
		{
			"buffer":0,
			"byteLength":768,
			"byteOffset":245116,
			"target":34963
		},
		{
			"buffer":0,
			"byteLength":2960,
			"byteOffset":245884,
			"target":34962
		},
		{
			"buffer":0,
			"byteLength":4440,
			"byteOffset":248844,
			"target":34962
		},
		{
			"buffer":0,
			"byteLength":4440,
			"byteOffset":253284,
			"target":34962
		},
		{
			"buffer":0,
			"byteLength":2960,
			"byteOffset":257724,
			"target":34962
		},
		{
			"buffer":0,
			"byteLength":2148,
			"byteOffset":260684,
			"target":34963
		},
		{
			"buffer":0,
			"byteLength":7200,
			"byteOffset":262832,
			"target":34962
		},
		{
			"buffer":0,
			"byteLength":10800,
			"byteOffset":270032,
			"target":34962
		},
		{
			"buffer":0,
			"byteLength":10800,
			"byteOffset":280832,
			"target":34962
		},
		{
			"buffer":0,
			"byteLength":7200,
			"byteOffset":291632,
			"target":34962
		},
		{
			"buffer":0,
			"byteLength":4812,
			"byteOffset":298832,
			"target":34963
		},
		{
			"buffer":0,
			"byteLength":256,
			"byteOffset":303644,
			"target":34962
		},
		{
			"buffer":0,
			"byteLength":384,
			"byteOffset":303900,
			"target":34962
		},
		{
			"buffer":0,
			"byteLength":384,
			"byteOffset":304284,
			"target":34962
		},
		{
			"buffer":0,
			"byteLength":256,
			"byteOffset":304668,
			"target":34962
		},
		{
			"buffer":0,
			"byteLength":216,
			"byteOffset":304924,
			"target":34963
		},
		{
			"buffer":0,
			"byteLength":872,
			"byteOffset":305140,
			"target":34962
		},
		{
			"buffer":0,
			"byteLength":1308,
			"byteOffset":306012,
			"target":34962
		},
		{
			"buffer":0,
			"byteLength":1308,
			"byteOffset":307320,
			"target":34962
		},
		{
			"buffer":0,
			"byteLength":872,
			"byteOffset":308628,
			"target":34962
		},
		{
			"buffer":0,
			"byteLength":384,
			"byteOffset":309500,
			"target":34963
		},
		{
			"buffer":0,
			"byteLength":32,
			"byteOffset":309884,
			"target":34962
		},
		{
			"buffer":0,
			"byteLength":48,
			"byteOffset":309916,
			"target":34962
		},
		{
			"buffer":0,
			"byteLength":48,
			"byteOffset":309964,
			"target":34962
		},
		{
			"buffer":0,
			"byteLength":32,
			"byteOffset":310012,
			"target":34962
		},
		{
			"buffer":0,
			"byteLength":12,
			"byteOffset":310044,
			"target":34963
		},
		{
			"buffer":0,
			"byteLength":55788,
			"byteOffset":310056,
			"target":34962
		},
		{
			"buffer":0,
			"byteLength":55788,
			"byteOffset":365844,
			"target":34962
		},
		{
			"buffer":0,
			"byteLength":37192,
			"byteOffset":421632,
			"target":34962
		}
	],
	"buffers":[
		{
			"byteLength":458824,
			"uri":"data:application/octet-stream;base64,"
		}
	]
}
